<svg width="50" height="50" viewBox="0 0 50 50" fill="none" xmlns="http://www.w3.org/2000/svg">
<path d="M28.125 35.4166V39.5833L25 45.8333L21.875 39.5833L28.125 35.4166ZM30.2083 13.125L28.125 14.5833V12.5H21.875V18.75L19.7917 20.2083V22.2916L30.2083 15.4166V13.125ZM30.2083 21.4583L28.125 22.9166V18.75L21.875 22.9166V27.0833L19.7917 28.5416V30.625L30.2083 23.75V21.4583ZM30.2083 29.7916L28.125 31.25V27.0833L21.875 31.25V35.4166L19.7917 36.875V38.9583L30.2083 32.0833V29.7916ZM16.6667 4.16663C16.6667 4.16663 14.5833 4.16663 14.5833 6.24996L20.8333 10.4166H29.1667L35.4167 6.24996C35.4167 6.24996 35.4167 4.16663 33.3333 4.16663H16.6667Z" fill="white"/>
</svg>
